<svg width="306" height="37" viewBox="0 0 306 37" fill="none" xmlns="http://www.w3.org/2000/svg">
<path d="M49.5695 14.6285V18.134H54.3005V20.6135H49.5695V26H46.3395V12.1585H55.2505V14.6285H49.5695ZM59.7707 16.1485V26H56.8257V16.1485H59.7707ZM60.0747 13.4505C60.0747 13.6848 60.0272 13.9065 59.9322 14.1155C59.8372 14.3182 59.7074 14.4987 59.5427 14.657C59.3781 14.809 59.1849 14.9325 58.9632 15.0275C58.7479 15.1162 58.5167 15.1605 58.2697 15.1605C58.0291 15.1605 57.8042 15.1162 57.5952 15.0275C57.3862 14.9325 57.1994 14.809 57.0347 14.657C56.8764 14.4987 56.7497 14.3182 56.6547 14.1155C56.5661 13.9065 56.5217 13.6848 56.5217 13.4505C56.5217 13.2098 56.5661 12.985 56.6547 12.776C56.7497 12.567 56.8764 12.3833 57.0347 12.225C57.1994 12.0667 57.3862 11.9432 57.5952 11.8545C57.8042 11.7658 58.0291 11.7215 58.2697 11.7215C58.5167 11.7215 58.7479 11.7658 58.9632 11.8545C59.1849 11.9432 59.3781 12.0667 59.5427 12.225C59.7074 12.3833 59.8372 12.567 59.9322 12.776C60.0272 12.985 60.0747 13.2098 60.0747 13.4505ZM64.5416 17.2125C64.7316 17.0352 64.928 16.8705 65.1306 16.7185C65.3333 16.5665 65.5486 16.4398 65.7766 16.3385C66.011 16.2308 66.2611 16.1485 66.5271 16.0915C66.7995 16.0282 67.094 15.9965 67.4106 15.9965C67.949 15.9965 68.424 16.0915 68.8356 16.2815C69.2536 16.4652 69.6051 16.7248 69.8901 17.0605C70.1751 17.3898 70.3905 17.7857 70.5361 18.248C70.6818 18.704 70.7546 19.2012 70.7546 19.7395V26H67.8096V19.7395C67.8096 19.2582 67.6988 18.8845 67.4771 18.6185C67.2555 18.3462 66.9293 18.21 66.4986 18.21C66.1756 18.21 65.8716 18.2797 65.5866 18.419C65.308 18.552 65.0356 18.7357 64.7696 18.97V26H61.8246V16.1485H63.6486C64.016 16.1485 64.2566 16.3132 64.3706 16.6425L64.5416 17.2125ZM77.2016 15.9965C77.9489 15.9965 78.6298 16.1137 79.2441 16.348C79.8584 16.5823 80.3841 16.918 80.8211 17.355C81.2644 17.792 81.6064 18.324 81.8471 18.951C82.0941 19.5717 82.2176 20.2715 82.2176 21.0505C82.2176 21.8358 82.0941 22.5452 81.8471 23.1785C81.6064 23.8055 81.2644 24.3407 80.8211 24.784C80.3841 25.221 79.8584 25.5598 79.2441 25.8005C78.6298 26.0348 77.9489 26.152 77.2016 26.152C76.4479 26.152 75.7608 26.0348 75.1401 25.8005C74.5258 25.5598 73.9938 25.221 73.5441 24.784C73.1008 24.3407 72.7556 23.8055 72.5086 23.1785C72.2679 22.5452 72.1476 21.8358 72.1476 21.0505C72.1476 20.2715 72.2679 19.5717 72.5086 18.951C72.7556 18.324 73.1008 17.792 73.5441 17.355C73.9938 16.918 74.5258 16.5823 75.1401 16.348C75.7608 16.1137 76.4479 15.9965 77.2016 15.9965ZM77.2016 23.967C77.8793 23.967 78.3764 23.7295 78.6931 23.2545C79.0161 22.7732 79.1776 22.0448 79.1776 21.0695C79.1776 20.0942 79.0161 19.369 78.6931 18.894C78.3764 18.419 77.8793 18.1815 77.2016 18.1815C76.5049 18.1815 75.9951 18.419 75.6721 18.894C75.3491 19.369 75.1876 20.0942 75.1876 21.0695C75.1876 22.0448 75.3491 22.7732 75.6721 23.2545C75.9951 23.7295 76.5049 23.967 77.2016 23.967ZM86.4556 17.6685C86.7596 17.1365 87.108 16.7185 87.5006 16.4145C87.8996 16.1105 88.3556 15.9585 88.8686 15.9585C89.312 15.9585 89.673 16.063 89.9516 16.272L89.7616 18.438C89.73 18.5773 89.6761 18.6723 89.6001 18.723C89.5305 18.7737 89.4323 18.799 89.3056 18.799C89.255 18.799 89.1885 18.7958 89.1061 18.7895C89.0238 18.7832 88.9383 18.7768 88.8496 18.7705C88.761 18.7578 88.6691 18.7483 88.5741 18.742C88.4855 18.7293 88.4031 18.723 88.3271 18.723C87.8965 18.723 87.5513 18.837 87.2916 19.065C87.0383 19.293 86.823 19.6097 86.6456 20.015V26H83.7006V16.1485H85.4486C85.5943 16.1485 85.7146 16.1612 85.8096 16.1865C85.911 16.2118 85.9933 16.253 86.0566 16.31C86.1263 16.3607 86.177 16.4303 86.2086 16.519C86.2466 16.6077 86.2783 16.7153 86.3036 16.842L86.4556 17.6685ZM94.48 26.152C94.0113 26.152 93.5965 26.0855 93.2355 25.9525C92.8808 25.8132 92.58 25.62 92.333 25.373C92.0923 25.1197 91.9087 24.8157 91.782 24.461C91.6553 24.1063 91.592 23.7105 91.592 23.2735V18.1815H90.756C90.604 18.1815 90.4742 18.134 90.3665 18.039C90.2588 17.9377 90.205 17.792 90.205 17.602V16.4525L91.7725 16.1485L92.352 13.745C92.428 13.441 92.6433 13.289 92.998 13.289H94.537V16.1675H96.9785V18.1815H94.537V23.074C94.537 23.302 94.5908 23.492 94.6985 23.644C94.8125 23.7897 94.974 23.8625 95.183 23.8625C95.2907 23.8625 95.3793 23.853 95.449 23.834C95.525 23.8087 95.5883 23.7833 95.639 23.758C95.696 23.7263 95.7467 23.701 95.791 23.682C95.8417 23.6567 95.8987 23.644 95.962 23.644C96.0507 23.644 96.1203 23.6662 96.171 23.7105C96.228 23.7485 96.285 23.8118 96.342 23.9005L97.235 25.297C96.855 25.582 96.4275 25.7973 95.9525 25.943C95.4775 26.0823 94.9867 26.152 94.48 26.152ZM103.33 21.991C102.741 22.0163 102.257 22.067 101.877 22.143C101.497 22.219 101.196 22.314 100.974 22.428C100.752 22.542 100.597 22.6718 100.509 22.8175C100.426 22.9632 100.385 23.1215 100.385 23.2925C100.385 23.6282 100.477 23.8657 100.661 24.005C100.844 24.138 101.113 24.2045 101.468 24.2045C101.848 24.2045 102.181 24.138 102.466 24.005C102.751 23.872 103.039 23.6567 103.33 23.359V21.991ZM98.029 17.5165C98.6243 16.9908 99.283 16.6013 100.005 16.348C100.733 16.0883 101.512 15.9585 102.342 15.9585C102.937 15.9585 103.473 16.0567 103.948 16.253C104.429 16.443 104.834 16.7122 105.164 17.0605C105.499 17.4025 105.756 17.811 105.933 18.286C106.11 18.761 106.199 19.2803 106.199 19.844V26H104.85C104.571 26 104.359 25.962 104.214 25.886C104.074 25.81 103.957 25.6517 103.862 25.411L103.653 24.8695C103.406 25.0785 103.169 25.2622 102.941 25.4205C102.713 25.5788 102.475 25.715 102.228 25.829C101.987 25.9367 101.728 26.0158 101.449 26.0665C101.177 26.1235 100.873 26.152 100.537 26.152C100.087 26.152 99.6788 26.095 99.3115 25.981C98.9442 25.8607 98.6307 25.6865 98.371 25.4585C98.1177 25.2305 97.9213 24.9487 97.782 24.613C97.6427 24.271 97.573 23.8783 97.573 23.435C97.573 23.0803 97.6617 22.7225 97.839 22.3615C98.0163 21.9942 98.3235 21.6617 98.7605 21.364C99.1975 21.06 99.7865 20.8067 100.528 20.604C101.269 20.4013 102.203 20.2873 103.33 20.262V19.844C103.33 19.2677 103.21 18.8528 102.969 18.5995C102.735 18.3398 102.399 18.21 101.962 18.21C101.614 18.21 101.329 18.248 101.107 18.324C100.885 18.4 100.686 18.4855 100.509 18.5805C100.338 18.6755 100.17 18.761 100.005 18.837C99.8403 18.913 99.644 18.951 99.416 18.951C99.2133 18.951 99.0423 18.9003 98.903 18.799C98.7637 18.6977 98.6497 18.5773 98.561 18.438L98.029 17.5165Z" fill="#023E73"/>
<path d="M36 18C36 20.3638 35.5344 22.7044 34.6298 24.8883C33.7252 27.0722 32.3994 29.0565 30.7279 30.7279C29.0565 32.3994 27.0722 33.7252 24.8883 34.6298C22.7044 35.5344 20.3638 36 18 36V18H36Z" fill="#A7C8F2"/>
<path d="M17.9996 36.1235C15.6359 36.1072 13.2985 35.6254 11.1209 34.7058C8.94335 33.7861 6.96825 32.4466 5.30838 30.7636C3.64851 29.0807 2.33638 27.0872 1.4469 24.8972C0.55742 22.7071 0.108013 20.3633 0.124339 17.9996L18.1239 18.1239L17.9996 36.1235Z" fill="#0455BF"/>
<path d="M17.9998 0.0839605C20.3636 0.0729329 22.7064 0.527592 24.8944 1.42198C27.0825 2.31637 29.073 3.63296 30.7522 5.2966C32.4314 6.96024 33.7666 8.93834 34.6813 11.118C35.5961 13.2976 36.0726 15.636 36.0836 17.9998L18.0838 18.0838L17.9998 0.0839605Z" fill="#86B2B5"/>
<path d="M0.120321 18.1071C0.122046 15.7433 0.589338 13.403 1.49551 11.2198C2.40169 9.03657 3.72901 7.05323 5.40168 5.38299C7.07436 3.71276 9.05963 2.38834 11.2442 1.48535C13.4287 0.582356 15.7697 0.11848 18.1335 0.120205L18.1203 18.1202L0.120321 18.1071Z" fill="#023E73"/>
<path d="M19.9434 20.6338C19.9434 20.1533 19.8086 19.7725 19.5391 19.4912C19.2754 19.2041 18.8242 18.9404 18.1855 18.7002C17.5469 18.46 16.9961 18.2227 16.5332 17.9883C16.0703 17.748 15.6719 17.4756 15.3379 17.1709C15.0098 16.8604 14.752 16.4971 14.5645 16.0811C14.3828 15.665 14.292 15.1699 14.292 14.5957C14.292 13.6055 14.6084 12.7939 15.2412 12.1611C15.874 11.5283 16.7148 11.1592 17.7637 11.0537V9.17285H19.1699V11.0801C20.207 11.2266 21.0186 11.6602 21.6045 12.3809C22.1904 13.0957 22.4834 14.0244 22.4834 15.167H19.9434C19.9434 14.4639 19.7969 13.9395 19.5039 13.5938C19.2168 13.2422 18.8301 13.0664 18.3438 13.0664C17.8633 13.0664 17.4912 13.2041 17.2275 13.4795C16.9639 13.749 16.832 14.124 16.832 14.6045C16.832 15.0498 16.9609 15.4072 17.2188 15.6768C17.4766 15.9463 17.9541 16.2217 18.6514 16.5029C19.3545 16.7842 19.9316 17.0508 20.3828 17.3027C20.834 17.5488 21.2148 17.8301 21.5254 18.1465C21.8359 18.457 22.0732 18.8145 22.2373 19.2188C22.4014 19.6172 22.4834 20.083 22.4834 20.6162C22.4834 21.6123 22.1729 22.4209 21.5518 23.042C20.9307 23.6631 20.0752 24.0293 18.9854 24.1406V25.8896H17.5879V24.1494C16.3867 24.0205 15.4551 23.5957 14.793 22.875C14.1367 22.1484 13.8086 21.1846 13.8086 19.9834H16.3486C16.3486 20.6807 16.5127 21.2168 16.8408 21.5918C17.1748 21.9609 17.6523 22.1455 18.2734 22.1455C18.7891 22.1455 19.1963 22.0107 19.4951 21.7412C19.7939 21.4658 19.9434 21.0967 19.9434 20.6338Z" fill="#F2EEDD"/>
</svg>
