<svg width="6" height="11" viewBox="0 0 6 11" fill="none" xmlns="http://www.w3.org/2000/svg">
<path d="M3.85742 7.12988C3.85742 6.86296 3.78255 6.65137 3.63281 6.49512C3.48633 6.33561 3.23568 6.18913 2.88086 6.05566C2.52604 5.9222 2.22005 5.79036 1.96289 5.66016C1.70573 5.52669 1.48438 5.37533 1.29883 5.20605C1.11654 5.03353 0.973307 4.83171 0.869141 4.60059C0.768229 4.36947 0.717773 4.0944 0.717773 3.77539C0.717773 3.22526 0.893555 2.77441 1.24512 2.42285C1.59668 2.07129 2.0638 1.86621 2.64648 1.80762V0.762695H3.42773V1.82227C4.00391 1.90365 4.45475 2.14453 4.78027 2.54492C5.10579 2.94206 5.26855 3.45801 5.26855 4.09277H3.85742C3.85742 3.70215 3.77604 3.41081 3.61328 3.21875C3.45378 3.02344 3.23893 2.92578 2.96875 2.92578C2.70182 2.92578 2.49512 3.00228 2.34863 3.15527C2.20215 3.30501 2.12891 3.51335 2.12891 3.78027C2.12891 4.02767 2.20052 4.22624 2.34375 4.37598C2.48698 4.52572 2.75228 4.67871 3.13965 4.83496C3.53027 4.99121 3.85091 5.13932 4.10156 5.2793C4.35221 5.41602 4.5638 5.57227 4.73633 5.74805C4.90885 5.92057 5.04069 6.11914 5.13184 6.34375C5.22298 6.5651 5.26855 6.82389 5.26855 7.12012C5.26855 7.6735 5.09603 8.12272 4.75098 8.46777C4.40592 8.81283 3.93066 9.01628 3.3252 9.07812V10.0498H2.54883V9.08301C1.88151 9.01139 1.36393 8.77539 0.996094 8.375C0.63151 7.97135 0.449219 7.43587 0.449219 6.76855H1.86035C1.86035 7.15592 1.9515 7.45378 2.13379 7.66211C2.31934 7.86719 2.58464 7.96973 2.92969 7.96973C3.21615 7.96973 3.44238 7.89486 3.6084 7.74512C3.77441 7.59212 3.85742 7.38704 3.85742 7.12988Z" fill="#F2EEDD"/>
</svg>
